<?xml version="1.0" encoding="UTF-8" standalone="no"?>
<!-- Created with Inkscape (http://www.inkscape.org/) -->

<svg
   width="512"
   height="512"
   viewBox="0 0 512 512"
   version="1.1"
   id="svg1"
   xml:space="preserve"
   inkscape:version="1.4 (86a8ad7, 2024-10-11)"
   sodipodi:docname="small-trailer_south.svg"
   inkscape:export-filename="small-trailer_south.png"
   inkscape:export-xdpi="96"
   inkscape:export-ydpi="96"
   xmlns:inkscape="http://www.inkscape.org/namespaces/inkscape"
   xmlns:sodipodi="http://sodipodi.sourceforge.net/DTD/sodipodi-0.dtd"
   xmlns="http://www.w3.org/2000/svg"
   xmlns:svg="http://www.w3.org/2000/svg"><sodipodi:namedview
     id="namedview1"
     pagecolor="#ffffff"
     bordercolor="#999999"
     borderopacity="1"
     inkscape:showpageshadow="2"
     inkscape:pageopacity="0"
     inkscape:pagecheckerboard="0"
     inkscape:deskcolor="#d1d1d1"
     inkscape:document-units="px"
     inkscape:zoom="1.0260114"
     inkscape:cx="216.8592"
     inkscape:cy="288.0085"
     inkscape:window-width="1920"
     inkscape:window-height="1057"
     inkscape:window-x="-8"
     inkscape:window-y="-8"
     inkscape:window-maximized="1"
     inkscape:current-layer="svg1"
     inkscape:export-bgcolor="#00000000" /><defs
     id="defs1" /><path
     id="rect47"
     style="fill:#8c4f27;fill-opacity:1;stroke:#000000;stroke-width:7.94556;stroke-linecap:round;stroke-linejoin:round;stroke-dasharray:none;stroke-opacity:1;paint-order:stroke fill markers"
     d="M 174.48242 -122.16211 L 174.48242 -182.01562 L 163.33398 -182.01562 L 163.33398 -311.64453 L 174.48242 -311.64453 L 174.48242 -350.5293 L 174.48242 -357.93945 L 174.48242 -410.73438 L 174.48242 -419.83789 L 185.78711 -419.83789 L 185.78711 -410.73438 L 185.78711 -407.67969 L 211.16602 -407.67969 L 312.91797 -407.67969 L 337.29297 -407.67969 L 337.29297 -410.73438 L 337.29297 -419.83789 L 348.24609 -419.83789 L 348.24609 -410.73438 L 348.24609 -357.93945 L 348.41211 -357.93945 L 348.41211 -350.5293 L 348.41211 -311.64453 L 359.5625 -311.64453 L 359.5625 -182.01562 L 348.41211 -182.01562 L 348.41211 -122.16211 L 335.50977 -122.16211 L 335.50977 -141.6543 L 187.5625 -141.6543 L 187.5625 -122.16211 L 174.48242 -122.16211 z M 185.78711 -357.93945 L 337.29297 -357.93945 L 337.29297 -399.59375 L 312.91797 -399.59375 L 211.16602 -399.59375 L 185.78711 -399.59375 L 185.78711 -357.93945 z "
     transform="scale(1,-1)" /><rect
     style="display:none;fill:#999999;stroke:none;stroke-width:8.6138;stroke-linecap:round;stroke-linejoin:round;paint-order:stroke fill markers"
     id="rect3"
     width="297.67624"
     height="296.82938"
     x="107.12956"
     y="123.00846"
     sodipodi:insensitive="true" /><g
     inkscape:label="图层 1"
     inkscape:groupmode="layer"
     id="layer1"><rect
       style="fill:#8c4f27;fill-opacity:1;stroke:none;stroke-width:7.94556;stroke-linecap:round;stroke-linejoin:round;stroke-dasharray:none;stroke-opacity:1;paint-order:stroke fill markers"
       id="rect37"
       width="12.902853"
       height="228.36755"
       x="335.50964"
       y="-350.52911"
       transform="scale(1,-1)" /><rect
       style="fill:#8c4f27;fill-opacity:1;stroke:none;stroke-width:8;stroke-linecap:round;stroke-linejoin:round;stroke-dasharray:none;stroke-opacity:1;paint-order:stroke fill markers"
       id="rect38"
       width="13.080259"
       height="228.36755"
       x="174.48302"
       y="-350.52911"
       transform="scale(1,-1)" /><rect
       style="fill:#502d16;fill-opacity:1;stroke:none;stroke-width:9.59858;stroke-linecap:round;stroke-linejoin:round;stroke-dasharray:none;stroke-opacity:1;paint-order:stroke fill markers"
       id="rect39"
       width="11.304868"
       height="9.1038952"
       x="174.48302"
       y="410.73398" /><rect
       style="fill:#502d16;fill-opacity:1;stroke:none;stroke-width:9.44759;stroke-linecap:round;stroke-linejoin:round;stroke-dasharray:none;stroke-opacity:1;paint-order:stroke fill markers"
       id="rect40"
       width="10.951987"
       height="9.1038952"
       x="337.29337"
       y="410.73395" /><rect
       style="fill:#502d16;fill-opacity:1;stroke:none;stroke-width:8;stroke-linecap:round;stroke-linejoin:round;stroke-dasharray:none;stroke-opacity:1;paint-order:stroke fill markers"
       id="rect45"
       width="173.92949"
       height="7.4103904"
       x="174.48302"
       y="350.52911" /><rect
       style="fill:#713f1e;fill-opacity:1;stroke:none;stroke-width:5.09407;stroke-linecap:round;stroke-linejoin:round;paint-order:stroke fill markers"
       id="rect1"
       width="208.87459"
       height="147.94637"
       x="-350.52911"
       y="-335.50964"
       transform="matrix(0,-1,-1,0,0,0)" /><rect
       style="fill:#7e8566;fill-opacity:1;stroke:none;stroke-width:12.5884;stroke-linecap:round;stroke-linejoin:round;paint-order:stroke fill markers"
       id="rect18"
       width="8.0842171"
       height="101.75291"
       x="-407.67874"
       y="-312.91867"
       transform="matrix(0,-1,-1,0,0,0)" /><rect
       style="fill:#666666;fill-opacity:1;stroke:none;stroke-width:6.49584;stroke-linecap:round;stroke-linejoin:round;paint-order:stroke fill markers"
       id="rect20"
       width="8.0842171"
       height="1.8611805"
       x="-407.67874"
       y="-305.66495"
       transform="matrix(0,-1,-1,0,0,0)" /><rect
       style="fill:#666666;fill-opacity:1;stroke:none;stroke-width:6.49584;stroke-linecap:round;stroke-linejoin:round;paint-order:stroke fill markers"
       id="rect21"
       width="8.0842171"
       height="1.7547377"
       x="-407.67874"
       y="-219.9265"
       transform="matrix(0,-1,-1,0,0,0)" /><rect
       style="fill:#583118;fill-opacity:1;stroke:none;stroke-width:7.95792;stroke-linecap:round;stroke-linejoin:round;stroke-dasharray:none;stroke-opacity:1;paint-order:stroke fill markers"
       id="rect42"
       width="11.149031"
       height="129.62819"
       x="163.334"
       y="182.01553" /><rect
       style="fill:#502d16;fill-opacity:1;stroke:none;stroke-width:8;stroke-linecap:round;stroke-linejoin:round;stroke-dasharray:none;stroke-opacity:1;paint-order:stroke fill markers"
       id="rect43"
       width="13.080261"
       height="51.080292"
       x="174.48302"
       y="299.44882" /><rect
       style="fill:#713f1e;fill-opacity:1;stroke:none;stroke-width:6.59966;stroke-linecap:round;stroke-linejoin:round;paint-order:stroke fill markers"
       id="rect14"
       width="69.308701"
       height="11.304869"
       x="-410.73398"
       y="-185.78789"
       transform="matrix(0,-1,-1,0,0,0)" /><rect
       style="fill:#676c53;fill-opacity:1;stroke:none;stroke-width:7.30085;stroke-linecap:round;stroke-linejoin:round;paint-order:stroke fill markers"
       id="rect19"
       width="8.0842142"
       height="31.998985"
       x="-407.67874"
       y="-211.16574"
       transform="matrix(0,-1,-1,0,0,0)" /><rect
       style="fill:#502d16;fill-opacity:1;stroke:none;stroke-width:8.05097;stroke-linecap:round;stroke-linejoin:round;stroke-dasharray:none;stroke-opacity:1;paint-order:stroke fill markers"
       id="rect44"
       width="13.247467"
       height="51.080292"
       x="335.16504"
       y="299.44882" /><rect
       style="fill:#713f1e;fill-opacity:1;stroke:none;stroke-width:6.49584;stroke-linecap:round;stroke-linejoin:round;paint-order:stroke fill markers"
       id="rect16"
       width="69.308701"
       height="10.951987"
       x="-410.73395"
       y="-348.2453"
       transform="matrix(0,-1,-1,0,0,0)" /><rect
       style="fill:#676c53;fill-opacity:1;stroke:none;stroke-width:6.49584;stroke-linecap:round;stroke-linejoin:round;paint-order:stroke fill markers"
       id="rect17"
       width="8.0842104"
       height="28.51449"
       x="-407.67874"
       y="-341.43314"
       transform="matrix(0,-1,-1,0,0,0)" /><rect
       style="fill:#583118;fill-opacity:1;stroke:none;stroke-width:7.95792;stroke-linecap:round;stroke-linejoin:round;stroke-dasharray:none;stroke-opacity:1;paint-order:stroke fill markers"
       id="rect46"
       width="11.149031"
       height="129.62819"
       x="348.41251"
       y="182.01553" /></g></svg>
