<?xml version="1.0" encoding="UTF-8" standalone="no"?>
<!-- Created with Inkscape (http://www.inkscape.org/) -->

<svg
   width="512"
   height="512"
   viewBox="0 0 512 512"
   version="1.1"
   id="svg1"
   xml:space="preserve"
   inkscape:version="1.4 (86a8ad7, 2024-10-11)"
   sodipodi:docname="small-trailer.svg"
   inkscape:export-filename="small-trailer.png"
   inkscape:export-xdpi="96"
   inkscape:export-ydpi="96"
   xmlns:inkscape="http://www.inkscape.org/namespaces/inkscape"
   xmlns:sodipodi="http://sodipodi.sourceforge.net/DTD/sodipodi-0.dtd"
   xmlns="http://www.w3.org/2000/svg"
   xmlns:svg="http://www.w3.org/2000/svg"><sodipodi:namedview
     id="namedview1"
     pagecolor="#ffffff"
     bordercolor="#999999"
     borderopacity="1"
     inkscape:showpageshadow="2"
     inkscape:pageopacity="0"
     inkscape:pagecheckerboard="0"
     inkscape:deskcolor="#d1d1d1"
     inkscape:document-units="px"
     inkscape:zoom="1.1808131"
     inkscape:cx="117.29206"
     inkscape:cy="243.4763"
     inkscape:window-width="1920"
     inkscape:window-height="1057"
     inkscape:window-x="-8"
     inkscape:window-y="-8"
     inkscape:window-maximized="1"
     inkscape:current-layer="svg1"
     inkscape:export-bgcolor="#00000000" /><defs
     id="defs1" /><path
     id="path21"
     style="fill:#583118;fill-opacity:1;stroke:#000000;stroke-width:8;stroke-linecap:round;stroke-linejoin:round;paint-order:stroke fill markers;stroke-opacity:1;stroke-dasharray:none"
     d="M 176.4375 155.44141 L 176.4375 159.16797 L 176.4375 200.70508 L 107.12891 200.70508 L 107.12891 208.18164 L 107.12891 223.48633 L 110.18555 223.48633 L 110.18555 228.97852 L 110.18555 235.16602 L 110.18555 236.75391 L 110.18555 298.66602 L 110.18555 300.16406 L 110.18555 310.79297 L 110.18555 337.44141 L 107.12891 337.44141 L 107.12891 346.78516 L 107.12891 365.91016 L 176.4375 365.91016 L 176.4375 408.61719 L 187.91211 408.61719 L 187.91211 365.91016 L 259.60156 365.91016 A 47.607018 47.607018 0 0 0 259.53516 366.83398 A 47.607018 47.607018 0 0 0 307.14258 414.43945 A 47.607018 47.607018 0 0 0 354.75 366.83398 A 47.607018 47.607018 0 0 0 354.72852 365.91016 L 404.80664 365.91016 L 404.80664 165.2207 L 404.80664 159.16797 L 404.80664 155.44141 L 176.4375 155.44141 z M 118.26953 223.48633 L 176.4375 223.48633 L 176.4375 296.92969 L 176.4375 305.11328 L 176.4375 337.44141 L 118.26953 337.44141 L 118.26953 310.79297 L 118.26953 300.16406 L 118.26953 298.66602 L 118.26953 236.75391 L 118.26953 235.16602 L 118.26953 228.97852 L 118.26953 223.48633 z M 282.49023 371.79492 L 295.08594 371.79492 L 286.18164 380.69922 A 25.150877 25.150877 0 0 1 282.49023 371.79492 z M 318.90234 371.79492 L 331.79492 371.79492 A 25.150877 25.150877 0 0 1 327.99219 380.88477 L 318.90234 371.79492 z M 302.0625 378.77148 L 302.0625 391.44922 A 25.150877 25.150877 0 0 1 293.13477 387.69922 L 302.0625 378.77148 z M 311.92773 378.77148 L 320.97656 387.82031 A 25.150877 25.150877 0 0 1 311.92773 391.51367 L 311.92773 378.77148 z " /><rect
     style="display:none;fill:#999999;stroke:none;stroke-width:8.6138;stroke-linecap:round;stroke-linejoin:round;paint-order:stroke fill markers"
     id="rect3"
     width="297.67624"
     height="296.82938"
     x="107.12956"
     y="123.00846"
     sodipodi:insensitive="true" /><g
     inkscape:label="图层 1"
     inkscape:groupmode="layer"
     id="layer1"><path
       id="path12"
       style="fill:#583118;fill-opacity:1;stroke:none;stroke-width:6.50577;stroke-linecap:round;stroke-linejoin:round;paint-order:stroke fill markers"
       d="m 305.13914,169.46233 a 40.949534,47.607018 0 0 0 -40.94989,47.60743 40.949534,47.607018 0 0 0 40.94989,47.60547 40.949534,47.607018 0 0 0 40.94988,-47.60547 40.949534,47.607018 0 0 0 -40.94988,-47.60743 z m 4.11598,22.92383 a 21.633716,25.150877 0 0 1 7.81534,3.71875 l -7.81534,9.08594 z m -8.48565,0.0664 v 12.73828 l -7.71622,-8.9707 a 21.633716,25.150877 0 0 1 7.71622,-3.76758 z m 22.32209,10.60156 a 21.633716,25.150877 0 0 1 3.26087,9.11133 h -11.09805 z m -36.00397,0.18164 7.68094,8.92969 H 283.9208 a 21.633716,25.150877 0 0 1 3.16679,-8.92969 z m -3.15336,18.79492 h 10.8343 l -7.6591,8.9043 a 21.633716,25.150877 0 0 1 -3.1752,-8.9043 z m 31.32015,0 h 11.08965 a 21.633716,25.150877 0 0 1 -3.27095,9.08985 z m -14.48491,6.97657 v 12.67773 a 21.633716,25.150877 0 0 1 -7.67927,-3.75 z m 8.48565,0 7.78342,9.04883 a 21.633716,25.150877 0 0 1 -7.78342,3.69335 z" /><rect
       style="fill:#502d16;stroke:none;stroke-width:6.20368;stroke-linecap:round;stroke-linejoin:round;paint-order:stroke fill markers"
       id="rect2"
       width="228.36754"
       height="200.69003"
       x="176.43826"
       y="165.22083" /><rect
       style="fill:#713f1e;fill-opacity:1;stroke:none;stroke-width:5.50743;stroke-linecap:round;stroke-linejoin:round;paint-order:stroke fill markers"
       id="rect1"
       width="228.36754"
       height="158.1698"
       x="176.43828"
       y="199.29547" /><rect
       style="fill:#502d16;fill-opacity:1;stroke:none;stroke-width:3.91723;stroke-linecap:round;stroke-linejoin:round;paint-order:stroke fill markers"
       id="rect4"
       width="228.36754"
       height="52.3526"
       x="176.43828"
       y="305.11267" /><rect
       style="fill:#502d16;fill-opacity:1;stroke:none;stroke-width:3.48924;stroke-linecap:round;stroke-linejoin:round;paint-order:stroke fill markers"
       id="rect5"
       width="228.36754"
       height="41.537609"
       x="176.43828"
       y="159.16789" /><rect
       style="fill:#8c4f27;fill-opacity:1;stroke:none;stroke-width:3.91723;stroke-linecap:round;stroke-linejoin:round;paint-order:stroke fill markers"
       id="rect6"
       width="228.36752"
       height="8.1833687"
       x="176.43828"
       y="296.92932" /><rect
       style="fill:#844b24;fill-opacity:1;stroke:none;stroke-width:2.56365;stroke-linecap:round;stroke-linejoin:round;paint-order:stroke fill markers"
       id="rect7"
       width="228.36754"
       height="3.726078"
       x="176.43828"
       y="155.4418" /><path
       id="path9"
       style="fill:#583118;fill-opacity:1;stroke:none;stroke-width:7.01471;stroke-linecap:round;stroke-linejoin:round;paint-order:stroke fill markers"
       d="m 307.14353,319.227 a 47.607018,47.607018 0 0 0 -47.60743,47.60743 47.607018,47.607018 0 0 0 47.60743,47.60547 47.607018,47.607018 0 0 0 47.60742,-47.60547 47.607018,47.607018 0 0 0 -47.60742,-47.60743 z m 4.78515,22.92383 a 25.150877,25.150877 0 0 1 9.08594,3.71875 l -9.08594,9.08594 z m -9.86523,0.0664 v 12.73828 l -8.9707,-8.9707 a 25.150877,25.150877 0 0 1 8.9707,-3.76758 z m 25.95117,10.60156 a 25.150877,25.150877 0 0 1 3.79102,9.11133 h -12.90235 z m -41.85742,0.18164 8.92969,8.92969 h -12.61133 a 25.150877,25.150877 0 0 1 3.68164,-8.92969 z m -3.66602,18.79492 h 12.59571 l -8.9043,8.9043 a 25.150877,25.150877 0 0 1 -3.69141,-8.9043 z m 36.41211,0 h 12.89258 a 25.150877,25.150877 0 0 1 -3.80273,9.08985 z m -16.83984,6.97657 v 12.67773 a 25.150877,25.150877 0 0 1 -8.92774,-3.75 z m 9.86523,0 9.04883,9.04883 a 25.150877,25.150877 0 0 1 -9.04883,3.69335 z" /><rect
       style="fill:#502d16;fill-opacity:1;stroke:none;stroke-width:5.43167;stroke-linecap:round;stroke-linejoin:round;paint-order:stroke fill markers"
       id="rect12"
       width="11.473021"
       height="42.705891"
       x="176.43826"
       y="365.91086" /><rect
       style="fill:#502d16;fill-opacity:1;stroke:none;stroke-width:6.63529;stroke-linecap:round;stroke-linejoin:round;paint-order:stroke fill markers"
       id="rect13"
       width="69.308708"
       height="19.126089"
       x="107.12956"
       y="346.78476" /><rect
       style="fill:#713f1e;fill-opacity:1;stroke:none;stroke-width:6;stroke-linecap:round;stroke-linejoin:round;paint-order:stroke fill markers"
       id="rect14"
       width="69.308701"
       height="9.3438234"
       x="107.12956"
       y="337.44095" /><rect
       style="fill:#502d16;fill-opacity:1;stroke:none;stroke-width:5.93545;stroke-linecap:round;stroke-linejoin:round;paint-order:stroke fill markers"
       id="rect15"
       width="69.308708"
       height="15.304292"
       x="107.12958"
       y="208.18222" /><rect
       style="fill:#713f1e;fill-opacity:1;stroke:none;stroke-width:5.36716;stroke-linecap:round;stroke-linejoin:round;paint-order:stroke fill markers"
       id="rect16"
       width="69.308701"
       height="7.4767299"
       x="107.12958"
       y="200.70551" /><rect
       style="fill:#676c53;fill-opacity:1;stroke:none;stroke-width:6;stroke-linecap:round;stroke-linejoin:round;paint-order:stroke fill markers"
       id="rect17"
       width="8.0842104"
       height="24.327486"
       x="110.1848"
       y="204.6503" /><rect
       style="fill:#7e8566;fill-opacity:1;stroke:none;stroke-width:11.2879;stroke-linecap:round;stroke-linejoin:round;paint-order:stroke fill markers"
       id="rect18"
       width="8.0842171"
       height="81.815201"
       x="110.1848"
       y="228.97778" /><rect
       style="fill:#676c53;fill-opacity:1;stroke:none;stroke-width:7.33476;stroke-linecap:round;stroke-linejoin:round;paint-order:stroke fill markers"
       id="rect19"
       width="8.0842142"
       height="32.296883"
       x="110.1848"
       y="310.79297" /><rect
       style="fill:#666666;fill-opacity:1;stroke:none;stroke-width:6;stroke-linecap:round;stroke-linejoin:round;paint-order:stroke fill markers"
       id="rect20"
       width="8.0842171"
       height="1.587889"
       x="110.1848"
       y="235.16635" /><rect
       style="fill:#666666;fill-opacity:1;stroke:none;stroke-width:6;stroke-linecap:round;stroke-linejoin:round;paint-order:stroke fill markers"
       id="rect21"
       width="8.0842171"
       height="1.497076"
       x="110.1848"
       y="298.66666" /></g></svg>
